# xmcd
#
# Track frame offsets: 
#        150
#        15462
#        28745
#        45525
#        61487
#        78927
#        94990
#        112700
#        133120
#        147575
#
# Disc length: 2164 seconds
#
# Revision: 4
# Processed by: cddbd v1.5.2PL0 Copyright (c) Steve Scherf et al.
# Submitted via: ExactAudioCopy v1.0b3
#
DISCID=8008720a
DTITLE=Billy Dean - Real Man
DYEAR=1998
DGENRE=Country
TTITLE0=A Fall In Tennessee
TTITLE1=Innocent Bystander
TTITLE2=Real Man
TTITLE3=I'm A Fool
TTITLE4=I'm Not Needed Here Now
TTITLE5=If I Could Find The Heart (To Love Again)
TTITLE6=Big Sister
TTITLE7=Voices Singing
TTITLE8=By My Song
TTITLE9=She Gets What She Wants
EXTD=
EXTT0=
EXTT1=
EXTT2=
EXTT3=
EXTT4=
EXTT5=
EXTT6=
EXTT7=
EXTT8=
EXTT9=
PLAYORDER=
